<?xml version="1.0" encoding="UTF-8"?>
<svg id="Layer_2" data-name="Layer 2" xmlns="http://www.w3.org/2000/svg" viewBox="0 0 538.48 52.65">
  <defs>
    <style>
      .cls-1 {
        fill: #f4f4f4;
      }
    </style>
  </defs>
  <g id="Layer_1-2" data-name="Layer 1">
    <g>
      <path class="cls-1" d="M67.11,6.98h17.16c10.77,0,17.26,6.93,17.26,19.38s-5.95,19.32-16.72,19.32h-17.7V6.98ZM76.85,37.72h6.44c6.06,0,8.5-4.33,8.5-11.36s-2.44-11.42-8.5-11.42h-6.44v22.78ZM131.89,21.81v7.96h-16.89v7.96h19.92v7.96h-29.66V6.98h29.33v7.96h-19.59v6.87h16.89ZM149.04,37.61l-2.49,8.06h-9.74l14.02-38.7h9.74l13.96,38.7h-9.74l-2.49-8.06h-13.26ZM160.14,30.2l-4.38-14.29h-.11l-4.38,14.29h8.88ZM177.24,6.98h17.16c10.77,0,17.26,6.93,17.26,19.38s-5.95,19.32-16.72,19.32h-17.7V6.98ZM186.98,37.72h6.44c6.06,0,8.5-4.33,8.5-11.36s-2.44-11.42-8.5-11.42h-6.44v22.78ZM251.38,23.48v4.33h-19.86v13.53h23.11v4.33h-27.98V6.98h27.33v4.33h-22.46v12.18h19.86ZM260.31,6.98h5.95l19.32,31.88h.11V6.98h4.87v38.7h-5.95l-19.32-31.77h-.11v31.77h-4.87V6.98ZM306.91,11.31h-12.88v-4.33h30.63v4.33h-12.88v34.37h-4.87V11.31ZM354.21,23.48v4.33h-19.86v13.53h23.11v4.33h-27.98V6.98h27.33v4.33h-22.46v12.18h19.86ZM363.13,6.98h15.7c7.63,0,12.77,4.11,12.77,10.99,0,5.57-2.65,8.66-6.93,9.74v.11c8.6,1.68,5.47,16.89,7.47,17.54v.32h-5.25c-1.68-1.62,2-15.64-7.79-15.64h-11.09v15.64h-4.87V6.98ZM368.01,25.7h9.69c4.01,0,9.04-.49,9.04-7.2s-5.03-7.2-9.04-7.2h-9.69v14.4ZM397.39,6.98h15.37c7.09,0,12.56,3.14,12.56,11.26s-5.47,11.26-12.56,11.26h-10.5v16.18h-4.87V6.98ZM402.26,25.16h11.04c4.82,0,7.14-2.22,7.14-6.93s-2.33-6.93-7.14-6.93h-11.04v13.85ZM430.03,6.98h15.7c7.63,0,12.77,4.11,12.77,10.99,0,5.57-2.65,8.66-6.93,9.74v.11c8.6,1.68,5.47,16.89,7.47,17.54v.32h-5.25c-1.68-1.62,2-15.64-7.79-15.64h-11.09v15.64h-4.87V6.98ZM434.9,25.7h9.69c4.01,0,9.04-.49,9.04-7.2s-5.03-7.2-9.04-7.2h-9.69v14.4ZM469.26,6.98v38.7h-4.87V6.98h4.87ZM504.93,35.55c0,5.63-4.17,10.88-13.96,10.88-9.15,0-16.24-4.87-16.78-13.75h4.87c.54,5.3,3.79,9.42,11.91,9.42,6.71,0,9.09-3.09,9.09-6.55,0-5.3-2.87-6.28-11.53-8.28-5.79-1.35-12.72-3.36-12.72-10.88,0-6.12,4.71-10.17,13.26-10.17s13.96,4.22,14.61,12.23h-4.87c-.7-5.2-3.63-7.9-9.74-7.9-5.47,0-8.39,2.11-8.39,5.3,0,5.14,4.17,5.85,9.85,7.25,8.71,2.16,14.4,3.63,14.4,12.45ZM535.23,23.48v4.33h-19.86v13.53h23.11v4.33h-27.98V6.98h27.33v4.33h-22.46v12.18h19.86Z"/>
      <g>
        <path class="cls-1" d="M47.82,43.28l-11.53,9.37H.16v-10.6h3.6v5.14h2.73v-5.14h5.54v5.14h2.73v-5.14h5.15v5.14h2.75v-5.14h4.91v5.14h2.73v-5.14h3.81c.54,0,1.08-.15,1.51-.5.01,0,.02-.01.04-.02,1.11-.92,1.66-2.35,1.66-3.78v-2.01c0-2.23,1.18-4.4,3.19-5.36,1.74-.86,3.41-.58,4.72.01,1.56.72,2.58,2.25,2.58,3.97v8.93Z"/>
        <path class="cls-1" d="M0,0v38.95h3.76v-7.42h2.72v7.42h5.56v-7.42h2.72v7.42h5.15v-7.42h2.76v7.42h4.92v-7.42h2.72v7.42h4.52v-10.91c0-1.39,1.11-2.5,2.5-2.5h.11s.03-.02.03-.02h15.11V0H0ZM27.03,14.14c0,.72-.58,1.3-1.3,1.3H7.5c-.72,0-1.3-.58-1.3-1.3v-4.04c0-.72.58-1.3,1.3-1.3h18.24c.72,0,1.3.58,1.3,1.3v4.04Z"/>
      </g>
    </g>
  </g>
</svg>